<mxfile host="app.diagrams.net" modified="2020-11-27T08:03:33.550Z" agent="5.0 (Windows NT 10.0; Win64; x64) AppleWebKit/537.36 (KHTML, like Gecko) Chrome/87.0.4280.66 Safari/537.36" etag="QAgSbBonuKDESC9za-Uc" version="13.8.8" type="github">
  <diagram id="kgpKYQtTHZ0yAKxKKP6v" name="Page-1">
    <mxGraphModel dx="1888" dy="580" grid="1" gridSize="10" guides="1" tooltips="1" connect="1" arrows="1" fold="1" page="1" pageScale="1" pageWidth="850" pageHeight="1100" math="0" shadow="0">
      <root>
        <mxCell id="0" />
        <mxCell id="1" parent="0" />
        <mxCell id="igZD2Z856jBG9K0RxjRj-6" value="Faculty" style="shape=umlLifeline;participant=umlActor;perimeter=lifelinePerimeter;whiteSpace=wrap;html=1;container=1;collapsible=0;recursiveResize=0;verticalAlign=top;spacingTop=36;outlineConnect=0;" vertex="1" parent="1">
          <mxGeometry x="90" y="80" width="25" height="470" as="geometry" />
        </mxCell>
        <mxCell id="igZD2Z856jBG9K0RxjRj-13" value="" style="html=1;points=[];perimeter=orthogonalPerimeter;" vertex="1" parent="igZD2Z856jBG9K0RxjRj-6">
          <mxGeometry x="5" y="80" width="10" height="80" as="geometry" />
        </mxCell>
        <mxCell id="igZD2Z856jBG9K0RxjRj-45" value="" style="shape=umlDestroy;" vertex="1" parent="igZD2Z856jBG9K0RxjRj-6">
          <mxGeometry x="-3" y="430" width="30" height="30" as="geometry" />
        </mxCell>
        <mxCell id="igZD2Z856jBG9K0RxjRj-7" value="Login&lt;br&gt;" style="shape=umlLifeline;participant=umlBoundary;perimeter=lifelinePerimeter;whiteSpace=wrap;html=1;container=1;collapsible=0;recursiveResize=0;verticalAlign=top;spacingTop=36;outlineConnect=0;" vertex="1" parent="1">
          <mxGeometry x="240" y="80" width="50" height="470" as="geometry" />
        </mxCell>
        <mxCell id="igZD2Z856jBG9K0RxjRj-10" value="" style="html=1;points=[];perimeter=orthogonalPerimeter;" vertex="1" parent="igZD2Z856jBG9K0RxjRj-7">
          <mxGeometry x="20" y="80" width="10" height="80" as="geometry" />
        </mxCell>
        <mxCell id="igZD2Z856jBG9K0RxjRj-8" value="Login" style="shape=umlLifeline;participant=umlEntity;perimeter=lifelinePerimeter;whiteSpace=wrap;html=1;container=1;collapsible=0;recursiveResize=0;verticalAlign=top;spacingTop=36;outlineConnect=0;" vertex="1" parent="1">
          <mxGeometry x="560" y="80" width="40" height="470" as="geometry" />
        </mxCell>
        <mxCell id="igZD2Z856jBG9K0RxjRj-18" value="" style="html=1;points=[];perimeter=orthogonalPerimeter;" vertex="1" parent="igZD2Z856jBG9K0RxjRj-8">
          <mxGeometry x="15" y="100" width="10" height="130" as="geometry" />
        </mxCell>
        <mxCell id="igZD2Z856jBG9K0RxjRj-48" value="" style="shape=umlDestroy;" vertex="1" parent="igZD2Z856jBG9K0RxjRj-8">
          <mxGeometry x="5" y="430" width="30" height="30" as="geometry" />
        </mxCell>
        <mxCell id="igZD2Z856jBG9K0RxjRj-9" value="Login System" style="shape=umlLifeline;participant=umlControl;perimeter=lifelinePerimeter;whiteSpace=wrap;html=1;container=1;collapsible=0;recursiveResize=0;verticalAlign=top;spacingTop=36;outlineConnect=0;" vertex="1" parent="1">
          <mxGeometry x="400" y="80" width="40" height="470" as="geometry" />
        </mxCell>
        <mxCell id="igZD2Z856jBG9K0RxjRj-17" value="" style="html=1;points=[];perimeter=orthogonalPerimeter;" vertex="1" parent="igZD2Z856jBG9K0RxjRj-9">
          <mxGeometry x="15" y="90" width="10" height="130" as="geometry" />
        </mxCell>
        <mxCell id="igZD2Z856jBG9K0RxjRj-26" value="self call" style="edgeStyle=orthogonalEdgeStyle;html=1;align=left;spacingLeft=2;endArrow=block;rounded=0;entryX=1.02;entryY=0.912;exitX=1.26;exitY=0.771;exitDx=0;exitDy=0;exitPerimeter=0;entryDx=0;entryDy=0;entryPerimeter=0;" edge="1" target="igZD2Z856jBG9K0RxjRj-17" parent="igZD2Z856jBG9K0RxjRj-9" source="igZD2Z856jBG9K0RxjRj-17">
          <mxGeometry relative="1" as="geometry">
            <mxPoint x="65" y="190" as="sourcePoint" />
            <Array as="points">
              <mxPoint x="50" y="190" />
              <mxPoint x="50" y="210" />
              <mxPoint x="25" y="210" />
            </Array>
            <mxPoint x="70" y="210" as="targetPoint" />
          </mxGeometry>
        </mxCell>
        <mxCell id="igZD2Z856jBG9K0RxjRj-47" value="" style="shape=umlDestroy;" vertex="1" parent="igZD2Z856jBG9K0RxjRj-9">
          <mxGeometry x="6" y="430" width="30" height="30" as="geometry" />
        </mxCell>
        <mxCell id="igZD2Z856jBG9K0RxjRj-12" value="return" style="html=1;verticalAlign=bottom;endArrow=open;dashed=1;endSize=8;exitX=0;exitY=0.95;" edge="1" source="igZD2Z856jBG9K0RxjRj-10" parent="1" target="igZD2Z856jBG9K0RxjRj-6">
          <mxGeometry relative="1" as="geometry">
            <mxPoint x="190" y="236" as="targetPoint" />
          </mxGeometry>
        </mxCell>
        <mxCell id="igZD2Z856jBG9K0RxjRj-15" value="" style="endArrow=open;endFill=1;endSize=12;html=1;exitX=1.18;exitY=0.128;exitDx=0;exitDy=0;exitPerimeter=0;" edge="1" parent="1" source="igZD2Z856jBG9K0RxjRj-13">
          <mxGeometry width="160" relative="1" as="geometry">
            <mxPoint x="110" y="170" as="sourcePoint" />
            <mxPoint x="260" y="170" as="targetPoint" />
          </mxGeometry>
        </mxCell>
        <mxCell id="igZD2Z856jBG9K0RxjRj-16" value="Enter Id/ Password" style="text;html=1;align=center;verticalAlign=middle;resizable=0;points=[];autosize=1;" vertex="1" parent="1">
          <mxGeometry x="120" y="150" width="120" height="20" as="geometry" />
        </mxCell>
        <mxCell id="igZD2Z856jBG9K0RxjRj-19" value="" style="endArrow=open;endFill=1;endSize=12;html=1;exitX=1.08;exitY=0.367;exitDx=0;exitDy=0;exitPerimeter=0;" edge="1" parent="1" source="igZD2Z856jBG9K0RxjRj-10">
          <mxGeometry width="160" relative="1" as="geometry">
            <mxPoint x="260" y="190" as="sourcePoint" />
            <mxPoint x="420" y="190" as="targetPoint" />
          </mxGeometry>
        </mxCell>
        <mxCell id="igZD2Z856jBG9K0RxjRj-20" value="Receive Id/ Password" style="text;html=1;align=center;verticalAlign=middle;resizable=0;points=[];autosize=1;" vertex="1" parent="1">
          <mxGeometry x="275" y="170" width="130" height="20" as="geometry" />
        </mxCell>
        <mxCell id="igZD2Z856jBG9K0RxjRj-21" value="" style="endArrow=open;endFill=1;endSize=12;html=1;" edge="1" parent="1" target="igZD2Z856jBG9K0RxjRj-8">
          <mxGeometry width="160" relative="1" as="geometry">
            <mxPoint x="425" y="210" as="sourcePoint" />
            <mxPoint x="545" y="210" as="targetPoint" />
          </mxGeometry>
        </mxCell>
        <mxCell id="igZD2Z856jBG9K0RxjRj-22" value="&lt;span style=&quot;color: rgba(0 , 0 , 0 , 0) ; font-family: monospace ; font-size: 0px&quot;&gt;%3CmxGraphModel%3E%3Croot%3E%3CmxCell%20id%3D%220%22%2F%3E%3CmxCell%20id%3D%221%22%20parent%3D%220%22%2F%3E%3CmxCell%20id%3D%222%22%20value%3D%22Receive%20Id%2F%20Password%22%20style%3D%22text%3Bhtml%3D1%3Balign%3Dcenter%3BverticalAlign%3Dmiddle%3Bresizable%3D0%3Bpoints%3D%5B%5D%3Bautosize%3D1%3B%22%20vertex%3D%221%22%20parent%3D%221%22%3E%3CmxGeometry%20x%3D%22275%22%20y%3D%22170%22%20width%3D%22130%22%20height%3D%2220%22%20as%3D%22geometry%22%2F%3E%3C%2FmxCell%3E%3C%2Froot%3E%3C%2FmxGraphModel%3E&lt;/span&gt;" style="text;html=1;align=center;verticalAlign=middle;resizable=0;points=[];autosize=1;" vertex="1" parent="1">
          <mxGeometry x="480" y="190" width="20" height="20" as="geometry" />
        </mxCell>
        <mxCell id="igZD2Z856jBG9K0RxjRj-23" value="Chk Id/ Password" style="text;html=1;align=center;verticalAlign=middle;resizable=0;points=[];autosize=1;" vertex="1" parent="1">
          <mxGeometry x="450" y="190" width="110" height="20" as="geometry" />
        </mxCell>
        <mxCell id="igZD2Z856jBG9K0RxjRj-24" value="return" style="html=1;verticalAlign=bottom;endArrow=open;dashed=1;endSize=8;" edge="1" parent="1" target="igZD2Z856jBG9K0RxjRj-9">
          <mxGeometry relative="1" as="geometry">
            <mxPoint x="580" y="240" as="sourcePoint" />
            <mxPoint x="500" y="240" as="targetPoint" />
          </mxGeometry>
        </mxCell>
        <mxCell id="igZD2Z856jBG9K0RxjRj-28" value="IS Valid = ?" style="text;html=1;align=center;verticalAlign=middle;resizable=0;points=[];autosize=1;" vertex="1" parent="1">
          <mxGeometry x="425" y="250" width="80" height="20" as="geometry" />
        </mxCell>
        <mxCell id="igZD2Z856jBG9K0RxjRj-29" value="alt" style="shape=umlFrame;whiteSpace=wrap;html=1;" vertex="1" parent="1">
          <mxGeometry x="30" y="320" width="630" height="180" as="geometry" />
        </mxCell>
        <mxCell id="igZD2Z856jBG9K0RxjRj-34" value="Log in Successfull" style="text;html=1;align=center;verticalAlign=middle;resizable=0;points=[];autosize=1;" vertex="1" parent="1">
          <mxGeometry x="290" y="340" width="110" height="20" as="geometry" />
        </mxCell>
        <mxCell id="igZD2Z856jBG9K0RxjRj-35" value="" style="endArrow=open;endFill=1;endSize=12;html=1;dashed=1;dashPattern=1 2;" edge="1" parent="1">
          <mxGeometry width="160" relative="1" as="geometry">
            <mxPoint x="425" y="360" as="sourcePoint" />
            <mxPoint x="265" y="360" as="targetPoint" />
          </mxGeometry>
        </mxCell>
        <mxCell id="igZD2Z856jBG9K0RxjRj-36" value="Log in Successful" style="text;html=1;align=center;verticalAlign=middle;resizable=0;points=[];autosize=1;" vertex="1" parent="1">
          <mxGeometry x="125" y="360" width="110" height="20" as="geometry" />
        </mxCell>
        <mxCell id="igZD2Z856jBG9K0RxjRj-37" value="Log in Unsuccessful" style="text;html=1;align=center;verticalAlign=middle;resizable=0;points=[];autosize=1;" vertex="1" parent="1">
          <mxGeometry x="280" y="420" width="120" height="20" as="geometry" />
        </mxCell>
        <mxCell id="igZD2Z856jBG9K0RxjRj-38" value="Log in Unsuccessful" style="text;html=1;align=center;verticalAlign=middle;resizable=0;points=[];autosize=1;" vertex="1" parent="1">
          <mxGeometry x="130" y="450" width="120" height="20" as="geometry" />
        </mxCell>
        <mxCell id="igZD2Z856jBG9K0RxjRj-39" value="" style="endArrow=open;endFill=1;endSize=12;html=1;dashed=1;dashPattern=1 2;" edge="1" parent="1">
          <mxGeometry width="160" relative="1" as="geometry">
            <mxPoint x="260" y="379.5" as="sourcePoint" />
            <mxPoint x="100" y="379.5" as="targetPoint" />
          </mxGeometry>
        </mxCell>
        <mxCell id="igZD2Z856jBG9K0RxjRj-40" value="" style="endArrow=open;endFill=1;endSize=12;html=1;dashed=1;dashPattern=1 2;" edge="1" parent="1">
          <mxGeometry width="160" relative="1" as="geometry">
            <mxPoint x="425" y="440" as="sourcePoint" />
            <mxPoint x="265" y="440" as="targetPoint" />
          </mxGeometry>
        </mxCell>
        <mxCell id="igZD2Z856jBG9K0RxjRj-41" value="" style="endArrow=open;endFill=1;endSize=12;html=1;dashed=1;dashPattern=1 2;" edge="1" parent="1">
          <mxGeometry width="160" relative="1" as="geometry">
            <mxPoint x="260" y="470" as="sourcePoint" />
            <mxPoint x="100" y="470" as="targetPoint" />
          </mxGeometry>
        </mxCell>
        <mxCell id="igZD2Z856jBG9K0RxjRj-42" value="[Valid]" style="text;html=1;align=center;verticalAlign=middle;resizable=0;points=[];autosize=1;" vertex="1" parent="1">
          <mxGeometry x="30" y="360" width="50" height="20" as="geometry" />
        </mxCell>
        <mxCell id="igZD2Z856jBG9K0RxjRj-43" value="[Invalid]" style="text;html=1;align=center;verticalAlign=middle;resizable=0;points=[];autosize=1;" vertex="1" parent="1">
          <mxGeometry x="30" y="420" width="60" height="20" as="geometry" />
        </mxCell>
        <mxCell id="igZD2Z856jBG9K0RxjRj-44" value="" style="endArrow=open;endFill=1;endSize=12;html=1;dashed=1;dashPattern=1 2;" edge="1" parent="1">
          <mxGeometry width="160" relative="1" as="geometry">
            <mxPoint x="660" y="401" as="sourcePoint" />
            <mxPoint x="10" y="400" as="targetPoint" />
          </mxGeometry>
        </mxCell>
        <mxCell id="igZD2Z856jBG9K0RxjRj-46" value="" style="shape=umlDestroy;" vertex="1" parent="1">
          <mxGeometry x="250" y="510" width="30" height="30" as="geometry" />
        </mxCell>
      </root>
    </mxGraphModel>
  </diagram>
</mxfile>
